<?xml version="1.0" encoding="utf-8"?>
<!-- Generator: Adobe Illustrator 23.1.0, SVG Export Plug-In . SVG Version: 6.00 Build 0)  -->
<svg version="1.1" id="Camada_1" xmlns="http://www.w3.org/2000/svg" xmlns:xlink="http://www.w3.org/1999/xlink" x="0px" y="0px"
	 viewBox="0 0 689 595" style="enable-background:new 0 0 689 595;" xml:space="preserve">
<style type="text/css">
	.st0{fill:none;stroke:#000000;stroke-width:0.5669;stroke-miterlimit:22.9256;}
	.st1{fill-rule:evenodd;clip-rule:evenodd;fill:#009045;}
	.st2{fill:none;stroke:#000000;stroke-width:1.0126;stroke-linecap:round;stroke-linejoin:round;stroke-miterlimit:22.9256;}
	.st3{fill-rule:evenodd;clip-rule:evenodd;fill:#FEEE00;}
	.st4{fill-rule:evenodd;clip-rule:evenodd;fill:#FFFFFF;}
	.st5{fill-rule:evenodd;clip-rule:evenodd;fill:#211915;}
	.st6{fill:#FFFFFF;}
	.st7{fill-rule:evenodd;clip-rule:evenodd;fill:#9A713A;}
	.st8{fill-rule:evenodd;clip-rule:evenodd;fill:#D9AF7A;}
	.st9{fill-rule:evenodd;clip-rule:evenodd;fill:#6B4B0E;}
	.st10{fill-rule:evenodd;clip-rule:evenodd;fill:#58432C;}
	.st11{fill-rule:evenodd;clip-rule:evenodd;fill:#000007;}
	.st12{fill-rule:evenodd;clip-rule:evenodd;fill:#3A2F2D;}
	.st13{fill-rule:evenodd;clip-rule:evenodd;fill:#C89C68;}
	.st14{fill-rule:evenodd;clip-rule:evenodd;fill:#2B1D00;}
	.st15{fill-rule:evenodd;clip-rule:evenodd;fill:#583C00;}
	.st16{fill-rule:evenodd;clip-rule:evenodd;fill:#CF8F21;}
	.st17{fill-rule:evenodd;clip-rule:evenodd;fill:#BD8633;}
	.st18{fill-rule:evenodd;clip-rule:evenodd;fill:#211C2D;}
	.st19{fill-rule:evenodd;clip-rule:evenodd;fill:#569749;}
	.st20{fill-rule:evenodd;clip-rule:evenodd;fill:#8A601A;}
	.st21{fill-rule:evenodd;clip-rule:evenodd;fill:#AD9276;}
	.st22{fill-rule:evenodd;clip-rule:evenodd;fill:#E5E0DA;}
	.st23{fill-rule:evenodd;clip-rule:evenodd;fill:#F6ECD9;}
	.st24{fill-rule:evenodd;clip-rule:evenodd;fill:#FBF7EE;}
	.st25{fill-rule:evenodd;clip-rule:evenodd;fill:#E0AB55;}
</style>
<path d="M680.37,588.72L6.96,589C119.07,395.52,231.16,202.03,343.28,8.56C455.66,201.94,568,395.34,680.37,588.72z"/>
<path class="st0" d="M680.37,588.72L6.96,589C119.07,395.52,231.16,202.03,343.28,8.56C455.66,201.94,568,395.34,680.37,588.72z"/>
<polygon class="st1" points="343.31,44.71 496.11,307.66 648.91,570.61 343.66,570.74 38.4,570.87 190.85,307.78 "/>
<path class="st2" d="M356.76,148.05c6.27,5.95,12.71,9.42,12.71,20.22c0.01,10.8-11.66,23.57-26.06,23.57
	c-14.4,0.01-26.09-12.63-26.09-23.55c-0.01-10.92,6.73-14.55,13.3-20.55c8.44-7.71-0.74-14.63-0.75-21.19
	c0-6.67,5.98-12.08,13.36-12.08c7.39,0,13.38,5.4,13.38,12.07C356.61,134.08,347.54,139.31,356.76,148.05z"/>
<path class="st3" d="M356.76,148.06c6.27,5.95,12.71,9.42,12.71,20.22c0.01,10.8-11.66,23.57-26.06,23.57
	c-14.4,0.01-26.09-12.63-26.09-23.55c-0.01-10.92,6.73-14.55,13.3-20.55c8.44-7.71-0.74-14.63-0.75-21.19
	c0-6.67,5.98-12.08,13.36-12.09c7.38,0,13.38,5.4,13.38,12.07C356.61,134.08,347.54,139.31,356.76,148.06"/>
<path class="st4" d="M343.42,214.53c63.39-0.03,114.81,58.01,114.86,129.62c0.05,71.61-51.3,129.69-114.68,129.71
	c-63.39,0.03-114.81-58-114.86-129.62C228.69,272.63,280.04,214.56,343.42,214.53"/>
<path class="st5" d="M382.05,401.59c-0.26-7.96-2.96-15.31-7.39-21.32l-13.74-1.45l-8.44,11.26l6.06,16.35l14.71,5.09L382.05,401.59
	z M356.05,438.99c6.26-2.12,11.87-5.83,16.28-10.75l-0.35-14.92l-14.24-5.02l-13.3,10.73l0.34,14.36L356.05,438.99z M314.55,427.71
	c4.37,5.05,9.99,8.9,16.3,11.12l11.27-5.57l0.39-14.43l-13.78-10.25l-13.9,5.1L314.55,427.71z M312.06,381.13
	c-4.28,6.17-6.79,13.65-6.78,21.71l8.22,9.06l14.63-5.43l5.18-16.02l-8.26-11.12L312.06,381.13z M353.16,365.8
	c-6.65-1.68-13.74-1.56-20.33,0.37l-6.24,11.28l8.42,11.74l15.73,0.09l8.77-11.72L353.16,365.8z M303.78,402.04
	c0.15-7.78,2.55-15.02,6.58-21.09l-3.57-8.66c-6.89,8.21-11.03,18.79-11.03,30.33c0,1.86,0.11,3.69,0.32,5.5L303.78,402.04z
	 M330.38,440.26c-6.43-2.26-12.18-6.15-16.69-11.25l-9.5,0.49c1.64,2.36,3.49,4.56,5.53,6.59c6.37,6.33,14.53,10.87,23.66,12.81
	L330.38,440.26z M373.8,428.86c-4.72,5.4-10.82,9.44-17.63,11.67l-2.81,8.35c11.84-2.52,22.29-9.5,29.17-19.43L373.8,428.86z
	 M375.84,379.33c4.7,6.36,7.54,14.16,7.72,22.62l7.12,5.28c-0.05,0.5,2.76-19.83-11.83-36.11L375.84,379.33z M343.65,363.12
	c3.25,0,6.41,0.38,9.43,1.11l6.03-6.3c-10.42-3.65-22.05-3.54-32.4,0.31l6.45,6.27C336.5,363.61,340.02,363.12,343.65,363.12z
	 M343.31,353.77c13.55-0.01,25.83,5.46,34.72,14.29c46.1,45.82-24.09,114.09-69.37,69.09c-8.89-8.83-14.39-21.04-14.4-34.53
	C294.24,375.55,316.3,353.78,343.31,353.77z"/>
<path class="st6" d="M549.09,531.96l12.59-1.02c0.27,2.63,0.83,4.63,1.67,6c1.37,2.23,3.32,3.34,5.86,3.34
	c1.89,0,3.35-0.56,4.37-1.71c1.03-1.14,1.54-2.47,1.54-3.98c0-1.43-0.48-2.71-1.45-3.85c-0.97-1.13-3.23-2.19-6.78-3.2
	c-5.82-1.67-9.95-3.91-12.44-6.7c-2.5-2.78-3.75-6.33-3.75-10.65c0-2.83,0.64-5.51,1.91-8.03c1.28-2.53,3.2-4.52,5.77-5.96
	c2.57-1.44,6.09-2.17,10.55-2.17c5.49,0,9.66,1.31,12.55,3.95c2.88,2.62,4.59,6.8,5.14,12.54l-12.47,0.96
	c-0.33-2.51-1.03-4.33-2.09-5.47c-1.07-1.14-2.54-1.71-4.41-1.71c-1.54,0-2.71,0.43-3.49,1.26c-0.78,0.84-1.17,1.87-1.17,3.08
	c0,0.88,0.32,1.66,0.95,2.37c0.61,0.73,2.09,1.4,4.43,2.03c5.8,1.6,9.94,3.24,12.45,4.88c2.51,1.65,4.34,3.68,5.48,6.12
	c1.14,2.43,1.71,5.16,1.72,8.18c0,3.54-0.76,6.81-2.27,9.8c-1.53,2.99-3.64,5.26-6.38,6.81c-2.73,1.55-6.17,2.32-10.32,2.32
	c-7.3,0-12.35-1.81-15.17-5.42C551.06,542.12,549.47,537.53,549.09,531.96 M528.96,495l13.04-0.01l0.04,55.01L529,550.01L528.96,495
	z M506,494h13v33.9c0.28,3.25-0.11,6.34-0.9,9.24c-0.79,2.91-2.02,5.44-3.71,7.62c-1.69,2.18-3.45,3.69-5.3,4.58
	c-2.58,1.22-5.68,1.84-9.28,1.85c-2.09,0-4.37-0.19-6.84-0.56c-2.47-0.37-4.54-1.12-6.2-2.24c-1.66-1.12-3.18-2.7-4.55-4.76
	c-1.38-2.06-2.32-4.18-2.84-6.37c-0.82-3.51-1.23-6.63-1.38-9.34V495h13v33.7c0.4,3.01,1.05,5.37,2.34,7.05
	c1.3,1.7,3.1,2.55,5.4,2.55c2.27,0,4.06-0.84,5.36-2.51c1.29-1.66,1.94-4.03,1.91-7.09V494z M456.11,533.41
	c1.06-2.43,1.59-6.07,1.58-10.92c0-5.57-0.82-9.55-2.43-11.94c-1.62-2.38-3.84-3.57-6.68-3.57c-2.65,0-4.79,1.22-6.42,3.66
	c-1.65,2.43-2.47,6.24-2.46,11.41c0,6.03,0.81,10.27,2.4,12.7c1.61,2.43,3.81,3.65,6.6,3.65c0.9,0,1.75-0.12,2.55-0.34
	c-1.12-1.39-2.88-2.69-5.29-3.92l2.08-6.14c1.18,0.27,2.1,0.62,2.75,1.02c0.66,0.4,1.94,1.45,3.85,3.16
	C455.09,532.57,455.58,532.99,456.11,533.41z M466.28,542.17c1.65,1.48,2.73,2.42,3.24,2.79c0.75,0.55,1.78,1.2,3.06,1.93
	l-3.66,9.56c-1.85-1.16-3.69-2.52-5.5-4.11c-1.82-1.59-3.09-2.79-3.81-3.59c-2.93,1.63-6.59,2.46-11.01,2.46
	c-6.53,0-11.68-2.18-15.45-6.56c-4.46-5.17-6.7-12.44-6.7-21.8c-0.01-9.1,1.94-16.16,5.84-21.21c3.89-5.03,9.33-7.56,16.32-7.56
	c7.13,0,12.63,2.45,16.51,7.38c3.88,4.91,5.83,11.96,5.83,21.12C470.95,530.74,469.4,537.26,466.28,542.17z M406.24,529l-4.7-19.86
	L396.84,529L406.24,529z M409.07,541l-15.06,0.01l-2.12,8.99l-13.52,0.01L394.41,495l14.6-0.01L425.06,550l-13.87,0.01L409.07,541z
	 M326,495h17.39l6.69,33.68l6.66-32.68H374v54h-11v-41.82L354.97,551h-9.83L337,508.19V550h-11V495z M284.99,535L298,535l0.01,15.01
	L285,550.01L284.99,535z M252.01,538l6.65,0c2.25,0,3.83-0.52,4.75-1.54c0.92-1.02,1.38-2.39,1.38-4.12c0-1.61-0.45-2.89-1.37-3.87
	c-0.91-0.97-2.51-1.47-4.8-1.46l-6.62,0L252.01,538z M252.01,517l6.06,0c2.17,0,3.69-0.49,4.53-1.44c0.85-0.97,1.27-2.36,1.27-4.18
	c0-1.69-0.43-3.01-1.28-3.95c-0.85-0.96-2.34-1.43-4.44-1.43l-6.15,0L252.01,517z M238.96,495l24.74-0.01c4.12,0,7.28,1.31,9.5,3.94
	c2.21,2.62,3.31,5.88,3.32,9.76c0,3.25-0.78,6.05-2.36,8.36c-1.04,1.57-2.58,2.78-4.6,3.69c3.07,0.94,5.32,2.57,6.78,4.89
	c1.45,2.32,2.17,5.22,2.17,8.72c0,2.86-0.51,5.42-1.53,7.7c-1.03,2.28-2.45,4.07-4.22,5.41c-1.11,0.82-2.79,1.42-5.02,1.79
	c-2.97,0.5-4.94,0.76-5.92,0.76l-22.8,0.01L238.96,495z M197.99,535l13.01-0.01l0.01,15.01L198,550.01L197.99,535z M179.41,527.78
	l11.64,4.51c-0.78,4.2-2,7.71-3.69,10.51c-1.68,2.82-3.75,4.94-6.25,6.37c-2.49,1.43-5.66,2.15-9.5,2.15
	c-4.68,0-8.49-0.87-11.46-2.61c-2.96-1.75-5.51-4.82-7.66-9.21c-2.15-4.39-3.24-10.02-3.24-16.86c-0.01-9.14,1.88-16.16,5.65-21.08
	c3.79-4.9,9.13-7.36,16.05-7.37c5.41,0,9.66,1.4,12.76,4.21c3.09,2.82,5.4,7.14,6.9,12.98l-11.69,3.34
	c-0.41-1.67-0.84-2.9-1.29-3.67c-0.75-1.3-1.66-2.3-2.73-3c-1.08-0.71-2.28-1.06-3.61-1.06c-3.02,0-5.33,1.56-6.92,4.66
	c-1.21,2.31-1.81,5.93-1.81,10.86c0,6.13,0.73,10.3,2.18,12.58c1.45,2.27,3.48,3.4,6.1,3.39c2.54,0,4.46-0.91,5.75-2.75
	C177.89,533.92,178.83,531.26,179.41,527.78z M129.99,535l13.01-0.01l0.01,15.01L130,550.01L129.99,535z M99.96,495l33.04-0.01
	l0.01,12.01L114,507.01l0.01,9.99l15.99-0.01l0.01,11.01L113,528.01l0.01,21.99L100,550.01L99.96,495z"/>
<path class="st1" d="M361.68,333.24l8.11,0l1.4-0.47c0.17-0.04,0.34-0.06,0.52-0.1c0.42-0.08,1.19-0.12,1.69-0.19
	c1.54-0.19,1.94-0.44,3.88-0.49c-1.58-2.15-7.18-4.03-9.93-5.01c-2.35-0.83-1.84-0.02-3.17-1.81c1.9-0.04,2.27-0.28,3.74-0.62
	c6.35,9.42,19.36-0.86,23.7-1.87l0-1.24c-3.42,0-3.66-0.54-6.84-0.64c-2.23-0.06-4.63,0.02-6.88,0.02
	c3.9-5.31,10.93,6.56,23.69-12.42c-2.84,0-4.57,0.59-6.79,1.31l-5.28,2.19c-0.06-0.12-0.29,0.33-0.5,0.33l1.35-3.21
	c6.47,0,8-1.29,10.98-5.21c1.36-1.8,4.7-8.7,5.23-10.93c-7.14,3.76-8.26,5.89-11.22,7.45c0.91-3.89,1.09-3.09,4.15-4.56
	c5.37-2.58,6.86-9.72,8.31-15.93c-6.71,3.53-6.81,6.38-9.35,8.07c0.06-2.73,0.42-1.93,0.62-4.34c3.79-0.32,5.15-2.76,6.14-6.3
	c0.53-1.88,1.29-8.38,1.33-10.46c-2.93,1.95-4.36,4.1-6.01,7.05l-1.46,2.26c0-3.61,0.05-2.89,2.02-4.81
	c4.3-4.21,2.33-10.1,2.33-16.29c-1.84,0.66-2.15,1.51-3.55,4.53l-1.49,4.1c-0.06,0.16,0.03,2.15-0.37,0.87
	c-0.03-0.09-0.12,0.29-0.2,0.42c0-7.75,2.44-10.02-3.75-19.24l-2.28-3.32c-0.97-1.26-0.24-0.32-0.85-1.02
	c0.01,16.6,5.08,18.57,6.25,23.58c-1.79-1.3-3.87-5.7-8.74-6.82l3.98,10.32c0.97,1.74,1.76,2.4,3.34,3.5
	c1.8,1.26,2.6,1.24,2.67,4.17c-1.3-0.95-2.36-2.8-3.88-4.21c-1.51-1.41-2.63-2.09-4.86-2.61c2.58,5.34,1.82,12.6,8.12,14.27
	l-1.24,3.72c-0.28-3.35-3.85-6.75-6.87-7.44c2.32,9.89-0.72,7.34,5.62,16.75c-0.55,2.33-0.25,2.55-1.87,3.72
	c0-3.84-0.64-6.23-2.82-8.99c-1.29-1.63-0.23-1.04-2.18-1.56c0,5.69-3.38,12.69,1.26,18c-0.9,1.35-1.18,2.14-2.49,3.1
	c0-5.54,0.34-8.86-3.13-11.17c-0.54,6.54-4.36,4.93-4.35,18c-1.48,0.78-2.12,1.43-3.74,1.86c3.51-5.22,3.07-5.48,2.49-12.41l-1.25,0
	c-1.33,5.71-6.63,4.78-9.4,12.99c-0.36,1.05-0.45,1.81-1.19,2.53c-0.77,0.74-2.25,1.83-3.12,0.62c2.97-1.98,5.61-6.21,5.61-11.17
	c-8.09,4.26-12.31,5.69-16.83,12.42c-1.16,0-6.09-0.47-10.45,0.31c-4.36-0.77-9.3-0.3-10.45-0.3c-4.53-6.72-8.75-8.15-16.85-12.4
	c0,4.96,2.65,9.19,5.62,11.17c-0.87,1.21-2.35,0.12-3.12-0.62c-0.74-0.72-0.84-1.48-1.2-2.53c-2.78-8.2-8.07-7.27-9.41-12.98
	l-1.25,0c-0.57,6.93-1.01,7.2,2.5,12.41c-1.62-0.43-2.26-1.08-3.74-1.86c-0.01-13.07-3.83-11.45-4.38-17.99
	c-3.46,2.31-3.11,5.63-3.11,11.17c-1.32-0.96-1.59-1.76-2.5-3.1c4.63-5.31,1.24-12.3,1.24-18c-1.95,0.52-0.89-0.08-2.18,1.56
	c-2.18,2.76-2.81,5.15-2.81,8.99c-1.62-1.18-1.33-1.39-1.87-3.72c6.33-9.42,3.29-6.86,5.6-16.76c-3.02,0.7-6.58,4.1-6.86,7.45
	l-1.25-3.72c6.3-1.68,5.52-8.93,8.1-14.28c-2.23,0.52-3.35,1.21-4.86,2.61c-1.51,1.42-2.58,3.27-3.87,4.21
	c0.06-2.93,0.87-2.92,2.67-4.17c1.57-1.1,2.36-1.77,3.34-3.51l3.97-10.32c-4.86,1.13-6.94,5.53-8.73,6.83
	c1.17-5.01,6.23-6.98,6.22-23.58c-0.61,0.69,0.12-0.25-0.85,1.02l-2.28,3.32c-6.17,9.23-3.73,11.5-3.72,19.25
	c-0.08-0.13-0.17-0.51-0.2-0.42c-0.4,1.28-0.31-0.71-0.37-0.87l-1.49-4.1c-1.4-3.02-1.72-3.87-3.56-4.53
	c0,6.19-1.95,12.08,2.35,16.29c1.97,1.92,2.03,1.2,2.03,4.81l-1.47-2.26c-1.66-2.95-3.09-5.09-6.02-7.04
	c0.05,2.08,0.82,8.58,1.35,10.46c1,3.53,2.36,5.98,6.15,6.29c0.2,2.41,0.56,1.62,0.63,4.34c-2.54-1.69-2.65-4.53-9.36-8.06
	c1.46,6.2,2.96,13.35,8.33,15.92c3.06,1.46,3.24,0.66,4.16,4.55c-2.96-1.56-4.09-3.68-11.23-7.44c0.52,2.23,3.87,9.13,5.24,10.92
	c2.98,3.92,4.52,5.2,10.99,5.2l1.35,3.21c-0.21,0-0.44-0.45-0.5-0.33l-5.29-2.19c-2.22-0.71-3.96-1.3-6.8-1.3
	c12.79,18.97,19.8,7.1,23.71,12.4c-2.25,0-4.65-0.08-6.88-0.02c-3.18,0.1-3.42,0.64-6.84,0.64l0,1.24c4.34,1,17.36,11.28,23.7,1.85
	c1.47,0.34,1.84,0.58,3.74,0.62c-1.32,1.8-0.81,0.98-3.16,1.82c-2.75,0.98-8.35,2.87-9.93,5.02c1.94,0.04,2.34,0.29,3.88,0.48
	c0.5,0.06,1.26,0.11,1.69,0.18c0.18,0.03,0.35,0.06,0.53,0.1l1.39,0.47l8.11,0c3.7,0,7.66-2.85,8.73-6.83c1.57,0,4.31-0.11,6.71-0.1
	c-1.3,0.75-2.26,1.78-2.64,3.2c4.25-0.1,4.12-2.01,7.01-2.82c2.89,0.81,2.76,2.73,7.01,2.82c-0.38-1.42-1.35-2.45-2.65-3.2
	c2.4-0.01,5.14,0.09,6.71,0.09C354.02,330.4,357.98,333.24,361.68,333.24"/>
<path class="st7" d="M340.96,270.21c0,0.01,0.04,0.41-0.24-0.04c-0.17-0.27-0.24,0.41-0.1-0.47l-0.18-0.34
	c-0.02-0.04-0.06-0.12-0.08-0.18l-0.72,3.87c-0.28,0.83-0.5-0.05-0.55,1.79c0.9-0.31,0.83-0.57,1.17-0.96
	c0.29,2.31-0.05,1.27-1.04,2.36l1.05-0.04c0.1,0.87-0.16,7.17-0.95,7.45l-2.04-0.01c-0.02-2.56-0.03-3.2,1.24-5.75
	c-2.2,1.24,0.9,1.39-3.27,1.58c0.03-0.08,0.09-0.27,0.11-0.23l0.34-1.13c-0.43,0.19-0.75,0.22-0.51,1.11
	c0.25,0.94,0.28,0.38,0.98,0.75c-0.03,1.23-0.04,0.46-0.28,1.01c-0.29,0.65,0.05-0.24-0.22,0.48c-0.1,0.26-0.09,0.36-0.17,0.57
	c-0.47,1.26-0.64,0.16-1.17,1.76l0.37-0.22c0.04-0.03,0.4-0.27,0.42-0.29c0.69,0.13,0.38,0.09,1.4,0.77
	c0.05,0.03,0.13,0.08,0.19,0.12c-0.05,1.98,0.38,1.88,0.4,3.61c-4.25-0.14-1.72-1.22-2.77-3.36c0.12,0.91-0.03,2.57,0.42,3.23
	c0.92,1.35,0.61-0.41,1.13,2.29l0.74-1.08c0.57-0.61,0.53-0.41,1.43-0.37c-0.22,1.33-1.22,2.1-2.21,2.64
	c-1.09,0.6-0.52,2.05-0.14,3.02c-0.04,0.53-0.14,0.34,0.09,0.96c0.12,0.33,0.16,0.32,0.28,0.47c0.22,0.28,0.23,0.23,0.42,0.42
	c-0.15-1.53-0.67-1.12-0.59-3.34c2.31,0.18,1.42,0.29,2.2,0.63c0.79,0.35,1.39,0.14,2.19,0.41c1.8,0.6,2.65,0.33,4.54,0.5
	c3.5,0.32,6,0.05,9.81-0.21c-0.19,0.95-0.7,1.96-1.16,2.68c-0.96,1.49-1.03,0.17-2.26,1.61c1.25-0.01,0.62-0.31,1.94-0.55
	c0.48-0.47,0.94-1.17,1.16-2.06c1.94-3.53,0.41-3.33-0.57-4.71c-0.47-0.66-0.2-0.72-0.84-1.42c1.75-0.36,2.09,0.5,2.71-0.42
	c-0.66-0.08-1.41-0.14-2.09-0.06c-1.44,0.15-2.09,0.86-6,0.42c-1.87-0.21-6.24-0.19-7.08-0.65l-0.61-0.53
	c-0.69-0.2-0.28,0.72-0.5-0.87c-0.15-1.07,0.54-1.34,0.61-3.65c3.21,0.81,5.8,0.57,9.31,0.63c2.89,0.05,8.35,1.84,7.27-1.98
	c-0.67-0.03-0.43-0.24-0.59-0.63c-0.34-0.83,0.16-0.26-0.52-1.17c-0.96-1.12-0.42-0.08-2.95-0.99c-0.97-0.35-2.77-0.13-4.04-0.15
	c-3.11-0.04-7.06-1.47-7.37,0.05l-0.14,1.3c-0.01,0.07-0.03,0.14-0.05,0.2c-0.01,0.06-0.05,0.14-0.06,0.19
	c-0.01,0.05-0.04,0.13-0.07,0.18c-0.02-1.54-0.35-3.68,0.19-5.02c1-2.48-0.03-1.65,0.57-4.57c0.44,1.03,0.14,1.24,0.3,2.03
	c0.02,0.07,0.03,0.13,0.05,0.2l0.27,0.51c0.19,0.12,0.05,0.1,0.52,0.19l7.19,0.73c1.37-0.01,1.67,0.17,2.46-0.37
	c0.03-0.02,0.09-0.08,0.13-0.12c0.09,0.93,0.01,0.94,0.67,1.18c0.47-0.82,0.17-1.9,1.35-1.07c0.63,0.44-0.51-0.11,0.52,0.48
	c0.72-0.38,0.13,0.22,0.62-0.57l0.45,0.35c0.01,0.01,0.46,0.53,0.46,0.54c0.5,0.8-0.2,0.47,0.56,0.98c-0.9-0.02,0.04,0.13-0.37-0.42
	c0.77-0.86,0.82-0.5,0.6-2.46c-0.25-1.24-0.19,0.19-0.41-1.07c-0.11-0.6,0.04-0.87-0.16-1.48c-0.42-1.32-0.31,0.02-0.53-1.1
	c-0.1-0.51,0.03-1.11,0.06-1.64c-0.04,0.05-0.07,0.13-0.09,0.18l-0.49,1.36l-0.45-2.12c-0.27-0.65-0.63-1.72-1.02-2.03l-0.3,5.42
	c-0.38-0.36-0.27-0.18-0.46-0.72l-0.3-1.86c-0.47,0.46-0.39,0.99-0.74,1.63c-0.06-0.04-0.12-0.11-0.16-0.15l-0.77-1.23
	c-0.14,0.36-0.01,0.21-0.21,0.49c-0.47,0.65,0.02,0.15-0.67,0.68c-0.55-0.64-0.84-0.52-1.92-0.43c-0.13,0.84-0.43,0.99-0.77,1.61
	c-1.69-0.28-1.11-0.76-3.19-0.81c-1.56-0.04-1.98,0.28-2.7-0.69L340.96,270.21z"/>
<path class="st8" d="M333.8,283.3l0.13,1.09c-0.53,0.25-0.24-0.18-0.44,0.48c-0.48-0.72,0.11-0.87-0.77-1.18
	c-0.96-0.33-0.87,0.08-1.33,0.51c-0.54-0.24-0.34,0.15-0.26-0.45l-1.2,0.08c-0.23-1.74,0.06-1.56,0.35-2.11
	c0.28-0.52,0.57-1.25,0.78-1.74c-1.61,0.47,0.37-0.27-1.37-0.37c-0.98-0.05-0.49-0.12-1.08,0.62l-1.55,2.22
	c-0.31-1.34-1.49-0.44-2.54-0.28c-1.57,0.23-1.8-0.21-3.09,0.52c-0.1,0.22-0.04,0.23-0.23,0.48c1.9-0.6-0.55-0.57,4.25-0.71
	c-0.25,0.61-1.2,1.52-2.4,3.69c-0.4,0.72-1.67,2.87-1.59,3.62c0.13,1.19,0.01,0.44,0.35,0.92c0.83-0.52,0.02,0.16,0.42-0.48
	c0.14-0.21,0.15-0.29,0.25-0.5c0.14-0.28,0.32-0.65,0.53-1.07c0.65-1.24,1.96-3.42,2.96-4.51c0.74-0.8,0.27,0.35,0.65-0.75
	c0.42,1.68,0.09,0.81-1.21,3.26c-1.14,2.14-3.68,9.13-4.34,9.21c-0.17-0.79,0.2-1.56-0.43-2.53c-0.53,0.37-0.24,0.06-0.46,0.68
	c-1.23,3.48-1.01,9.9,5.55,6.87l1.95-0.81c1.13-0.52,1.63-0.51,2.74-1.43l0.48-0.45c0.67-0.63,2.35-1.36,3.69-2.86
	c0.39-0.43,0.52-0.85,1.1-1.18c-0.38-0.97-0.96-2.42,0.14-3.02c0.99-0.54,1.99-1.31,2.21-2.64c-0.89-0.04-0.86-0.24-1.43,0.37
	l-0.74,1.08c-0.52-2.7-0.21-0.94-1.13-2.29c-0.45-0.66-0.29-2.32-0.42-3.23l-0.01-0.64c0.53-1.6,0.7-0.5,1.17-1.76
	c0.08-0.21,0.07-0.31,0.17-0.57c0.27-0.72-0.07,0.17,0.22-0.48c0.24-0.54,0.25,0.22,0.28-1.01c-0.7-0.37-0.72,0.19-0.98-0.75
	c-0.24-0.89,0.09-0.93,0.51-1.11l0.47-1.16l-1.69,4.66C334.35,283.64,334.18,283.1,333.8,283.3"/>
<path class="st9" d="M340.07,260.29c-1.06,0-0.32-0.19-1.53-0.47c0.05,2.82-0.23,1.04-0.74,2.18c1.04,1.41,1.03,1.8-0.01,3.14
	c-0.29,0.37,0.06-0.26-0.34,0.54c-0.29,0.58-0.35,0.73-0.5,1.43l1.02-1.15c3.23-5.17,2.38-0.28,2.81,1.08
	c0.49,1.53,0.57,1.45,0.18,3.18l1.04-0.18c0.72,0.97,1.14,0.65,2.7,0.69c2.09,0.05,1.51,0.53,3.19,0.81
	c0.33-0.62,0.64-0.77,0.77-1.61c1.08-0.09,1.36-0.21,1.92,0.43c0.69-0.53,0.2-0.03,0.67-0.68c0.2-0.28,0.07-0.13,0.21-0.49
	l0.77,1.23c0.04,0.04,0.1,0.11,0.16,0.15c0.35-0.64,0.27-1.17,0.74-1.63l0.3,1.86c0.19,0.54,0.08,0.36,0.46,0.72l0.3-5.42
	c0.38,0.31,0.75,1.38,1.02,2.03l0.45,2.12l0.49-1.36c0.02-0.05,0.05-0.13,0.09-0.18c0.48,0.39,3.76,6.94,3.81,7.11
	c0.84,0.54,0.84,0.96,1.43,2.09c0.51,0.98,1.06,1.41,0.52,2.52c0.84,0.73,0.55-0.06,1.01,1c0.29,0.3,0.51,0.41,0.55,1.1l0.34,0.04
	c-0.05-1.37-0.09-0.66-0.48-1.54l-2.01-5.16c-0.04-0.65-1.79-4.12-2.17-4.65c-0.4-0.56-0.09,0-0.44-0.66
	c-0.34-0.63,0.2-0.14-0.51-0.87l-2.98-5.04c-0.03-0.05-0.08-0.1-0.11-0.15c-0.53-0.76-0.31-0.06-0.49-0.88
	c-1.19,0.29-1.67,0.86-2.11-0.47l0.34-0.16c0.05-0.02,0.12-0.05,0.17-0.07c0.66-0.27,0.35,0.23,0.5-0.18
	c0.03-0.07,0.11-0.03,0.16-0.06c-0.42-0.89,0.06-1-0.9-1.2c-0.24-0.15-0.6-0.13-0.84-0.79c-0.19-0.52-0.08-0.41,0.03-0.92
	c0.92-0.5,1.07-0.37,2.03-0.34c-0.83-2.09-2.74-0.64-4.29-0.58c-0.74-0.16-1.47-1.57-1.63-1.83c-0.07,0.2-0.1,0.42-0.16,0.56
	c-0.16,0.4-0.13,0.36-0.31,0.66l-2.11-0.02c0.02,0.88-0.05,0.26,0.21,0.5l0.48,0.33c0.03-0.06,0.14,0.08,0.2,0.13l-0.76,0.4
	c-0.93,0.44-2.48,1.12-2.92,1.85c-0.94-0.32,0.33-0.36-2.39-0.39L340.07,260.29z"/>
<path class="st10" d="M356.53,282.45c1.08,3.82-4.38,2.03-7.27,1.98c-3.51-0.06-6.11,0.18-9.31-0.63c-0.07,2.32-0.76,2.58-0.61,3.65
	c0.22,1.59-0.19,0.68,0.5,0.87l0.61,0.53c0.84,0.46,5.2,0.43,7.08,0.65c3.91,0.44,4.56-0.26,6-0.42c0.68-0.07,1.43-0.02,2.09,0.06
	l0.5,0.13c0.83-0.77,0.7-1.15,0.76-2.74c0.22-0.35,0.29-1.07,1.14-0.33c0.24,0.21,1.07,2.06,1.05,3.48
	c0.55-0.74-0.26-0.26,0.99-0.47c-0.59-0.6-0.37-0.92-0.84-2.03c-0.44-1.03-0.38-1.36-0.46-2.63l0.55,0.34
	c0.05,0.03,0.1,0.08,0.15,0.11c1.81,1.39,2.8,2.79,2.48,5.23c-0.57-0.13,0.18,0.03-0.69-0.13l0.09,0.51l0.55,0.03
	c0.9,0.22,0.6,0.06,0.66,1.4c1.64-0.3,0.49-0.12,1.16,0.4c1.4,1.09,0.55,0.82,1.5,1.79c0.25,0.25,0.54,0.48,0.8,0.68
	c0.74,0.68,1,0.36,1.08,1.67c0.04-0.05,0.08-0.21,0.09-0.17c0.28,0.63-0.18-0.32,0.63-0.85c0.04,0.05,0.09,0.08,0.1,0.18l0.22,1.59
	c0.15,1.22,0.96,1.45,0.96,1.44l0.46,3.05c-0.07,0.43-0.17,0.33,0.25,0.33c0.01-1.37-0.11-2.97-0.08-4.5l0.69,0.43
	c-0.17-2.14-0.32-1.45-0.63-2.14c-0.6-1.32,0.37-3.42-0.23-4.89c-0.19-0.48-0.68-1.1-1.13-1.22c-0.75-0.36-0.16,0.44-0.88-0.76
	c-0.13-0.21-0.26-0.68-0.39-1.02c-0.07,0.52,0.06,0.29-0.94,0.5c-0.25-1.19,0.11-0.16-0.49-0.91c-0.84-1.04-2.69-2.52-3.99-2.94
	c-1.56-0.49-3.09,0.48-2.45-3.61l-0.18-0.82c-0.43-0.42-0.09,0.01-0.37-0.57c-0.18-0.37-0.09-0.34-0.19-0.57
	c-0.3-0.72,0.09-0.35-0.53-0.77c0.03,2.96,2.13,5.51-0.7,5.35c-0.59-0.73,0.18,0.27-0.3-0.57L356.53,282.45z"/>
<path class="st11" d="M346.65,244.24c0.03,0.8,0.15,0.38-0.1,0.96c-1.31,0.26-1.89,0.08-3.23,0.22c-1.51,0.15-1.22,1.63-2.74,0.06
	c0.09,2,0.03,1.03-0.6,2.25c-0.56,1.07,0.06,1.02-0.01,2.6c-0.55,0.44-0.74,0.55-1.37,0.88c-0.25,3.57,1.06,2.39,2.27,3.89
	c0.36,0.45,0.15,0.15,0.38,0.72c0.1,0.38-0.04,0.2,0.43,0.33c0.49-1.19-0.16-1.38-0.31-2.56c0.98,0.04,0.85-0.21,0.99,0.48
	l0.98,0.07l0.07-1.21c1.42,1.1,1.48,1.5,2.21,1.73l0.55-1.43c0.79,0.65,0.45,0.67,1.55,0.45l0.38,1.06
	c0.95-0.47,0.23-0.06,0.79-1.04c0.48,0.51,0.27,0.67,0.93,0.97c1.14-0.61,0.2-0.32,1.04-0.96c0.64-0.48,0.57-0.33,1.52-0.2
	c0.18,0.54-0.02,0.2,0.04,0.48l0.2,0.7l0.84-0.13c0.16-0.22-0.18-0.7,0.43-0.05c0.63,0.3,0.15,0.3,0.58,0.02
	c-0.02-1.34-0.6-0.92-0.38-2.33c0.23-1.45,0.27-0.11,0.91,0.28c0.07-1.62-0.3-3.07-1.69-3.62c-0.21,0.25-0.11,0.09-0.3,0.48
	c-0.03,0.07-0.11,0.28-0.13,0.36c-0.2,0.55,0,0.35-0.29,0.86c-0.29,0.52-0.55,0.66-1.34,0.65c-1.09-2.57-0.67-3.62-2.07-4.42
	l-1.34-0.74c-0.56-0.42-0.24,0.13-0.6-0.63l0.41-0.52c0.04-0.05,0.11-0.11,0.15-0.15l0.3-0.27c0.83-0.3,0.73-1.21,1.67-1.92
	c3.22-2.41,1.9-3.04,2.5-4.72c1.42-3.95,3-5.42,4.3-8.35c1-2.27,0.8-1.12,0.77-4.39h-1.39c-0.01,1.23-0.2,1.57-0.66,2.94
	c-0.15,0.44-0.01,0.08-0.21,0.48c-1.49,3.01-1.73,2.35-3.52,6.51c-0.4,0.93-0.46,1.76-0.76,2.78c-0.45,1.56-0.57,1.17-1.38,2.06
	C349.4,239.92,346.76,243.61,346.65,244.24"/>
<path class="st12" d="M330.45,255.69c-0.06-0.83-0.3-1.17-0.36-2.13c2.19,0.1,1.34-0.27,2.46-0.9c0.47,2.13,0.45,1.47,0.69,2.05
	c0.56,1.36-0.01,1.37-0.25,2.38c-0.92-0.28-0.48-0.43-1.62-0.33c0.31,0.41,0.03,0.11,0.51,0.55c1.3,1.15,1.34,1.82,3.05,2.31
	c0.63,0.18,1.33,0.09,1.98,0.06c0.06-1.55-0.18-0.04-0.32-1.32l1.65-0.29c0.01-0.22-0.02-0.15-0.1-0.33l-0.33-0.64
	c0.48-0.31,0.8-0.5,1.33-0.81c0.45-0.27,0.27-0.05,0.54-0.44l0.22-0.51c0.02-0.05,0.04-0.14,0.06-0.19
	c0.01-0.04,0.02-0.13,0.05-0.19l0.54,0.45c0.32,0.23,0.04,0.13,0.68,0.41c-0.23-0.57-0.02-0.27-0.38-0.72
	c-1.21-1.5-2.52-0.32-2.27-3.89c0.63-0.33,0.82-0.44,1.37-0.88c0.07-1.58-0.54-1.53,0.01-2.6c0.64-1.22,0.7-0.25,0.6-2.25
	c1.53,1.56,1.24,0.09,2.74-0.06c1.34-0.14,1.92,0.04,3.23-0.22c0.25-0.58,0.13-0.16,0.1-0.96c-0.05,0.04-0.12,0.05-0.14,0.13
	l-0.93,0.57c-0.5,0.13-1.07,0.07-1.59,0.07c-2.12-0.02-1.19,0.26-2.59,0.65c-1.09-2.31-4.7-2.98-6.12-4.13
	c-0.87-0.7-1.1-3.53-6.72-7.25c-0.73-0.48-1.84-2.08-2.25-2.89c-1.41-2.81-2.26-0.82-2.09,0.21c0.12,0.75,0.81,1.64,1.28,2.22
	c1.48,1.82,2.13,2.19,3.74,3.3c0.24,0.17,0.55,0.45,0.89,0.72l1.01,0.84c5.53,5.44-0.7,2.24,6.09,5.82c1.66,0.87,5.15,2.7,0,3.43
	l-0.98,2.11c-0.18,0.46-1.06,1.75-0.39,3.32c0.27,0.62,0.19-0.38,0.45,1.18c0.13,0.8-0.07,0.42,0.25,1.15
	c0.4,0.9,0.36-0.01,0.48,1.23l-3.09-0.99c-0.88-5.9-2.38-4.17-2.82-6.06c-0.3-1.3-0.14-1.23-0.66-2.38
	c-1.5-3.31,0.13-1.37-1.42-4.63c-0.52-1.09-1.94-2.52-3.3-2.85c-0.67,2.95-0.78,1.34-0.78,2.86c1.41,0.83,1.64-0.02,2.82,1.72
	c2.03,2.99-0.1,1.7,0.5,5.76l1.16,3.56C329.79,255.13,329.42,255.04,330.45,255.69"/>
<path class="st11" d="M361.15,262.28c-1.15,1.07-0.92,0.12-2.11,1.46c-1.19,1.32-1.22-0.15-2.28,1.53c0.52,1.46,1.04,1.25,1.49,1.3
	c1.95,0.03,3.59-0.58,4.59-2.08c0.62-0.93,1.07-0.8,1.66-1.6c1.68-2.25,0.96-3.08,1.08-5.58c0.05-1.12,0.32-1.25,0.88-2.73
	c0.18-0.47,0.26-0.69,0.47-1.18c0.29-0.7,0.39-0.63,0.54-1.08c0.54-1.62-0.46-1.28-0.5-2.93c0.42-0.84,0.93-1.36,1.98-1.49
	c1.63-0.2,1.77,0.37,2.81,0.81c0.87-0.35,0.64-0.5,1.25-1.08c0.4-0.37,0.04-0.22,0.61-0.46v-0.75c-1.14-0.35-0.48-0.7-2.32-0.72
	c-3.25-0.04-3.04-0.11-5.12,2.56c-1.42,1.82-1.04,0-2.65,1.81c-0.79,0.89-1.64,3.05-1.5,4.46c0.17,1.78,0.7,0.04,0.65,2.34
	c-0.23,1.12-0.66-0.45-0.64,2.8C362.06,261.03,362.18,261.59,361.15,262.28"/>
<path class="st10" d="M327.67,267.95c0.43,1.11,0.53,0.55,1.83,0.8c1.12,0.21,0.69,0.57,1.9,0.78c1.55,0.27,2.74-0.61,4.13-0.72
	l-2.4,3.1c-1.42,2.14-2.31,1.59-2.83,2.91c0.96-0.24,0.67-0.36,1.58-0.65c-0.18,0.97-2.9,4.42-3.54,5.53
	c-0.43,0.74-0.63,1.06-1.51,1.44c-0.81,0.69-3.14,0.62-4.31,0.45c-0.53,0.8-0.42,0.24-1.09,1.1c1.29-0.72,1.52-0.28,3.09-0.52
	c1.06-0.16,2.23-1.06,2.54,0.28l1.55-2.22c0.6-0.74,0.11-0.67,1.08-0.62c1.73,0.1-0.24,0.84,1.37,0.37
	c0.53-1.04,1.23-1.96,2.42-2.32l-0.49,1.6c-0.28,1.32-0.36,0.52-0.58,1.49c-0.18,0.8,0.09,1.17-0.22,1.91
	c-0.03,0.08-0.49,0.67-0.49,0.68c-0.32,0.33-0.05,0.27-0.58,0.42c-0.08,0.6-0.28,0.21,0.26,0.45c0.46-0.43,0.37-0.84,1.33-0.51
	c0.88,0.3,0.3,0.46,0.77,1.18c0.2-0.65-0.08-0.22,0.44-0.48l-0.13-1.09l-0.77-0.33c0.02-0.62-0.01-1.44,0.15-2.06
	c0.17-0.64,0.33-0.62,0.59-1.46l0.91-2.27c0.36-0.9,0.1,0.48,0.38-1.14c-1.84,0.15-0.95,0.49-1.94,0.57c0.4-1.34,1.6-1.96,2.28-3.08
	c0.71,0.76,0,0.37,0.92,0.64c0.44-1.46,0.25-1.27,1.16-2.34l0.92-0.72l-0.95-1.78l-0.32,0.79c-0.31,0.61-1.12,1.35-1.98,0.99
	l0.52-0.84c0.22-0.3,0.44-0.61,0.59-0.81c0.37-0.48,0.75-0.85,1.19-1.29c0.54,0.6,0.16,0.56,0.97,0.84l0.43-1.36l0.17,1.1
	c-0.09,3.33,0.58,3.2-0.58,3.75l-0.14,2.21c-1.53,0.05-2.32-0.28-3.17,0.36c0.55,0.45-0.18,0.12,0.9,0.4
	c0.05,0.01,0.64,0.03,0.84,0.06c-0.03,0.62-0.24,0.76-0.71,1.41l-0.47,1.16l-0.34,1.13c-0.02-0.03-0.08,0.15-0.11,0.23
	c4.16-0.19,1.07-0.34,3.27-1.58c0.26-1.26,0.43-0.64,0.7-1.65c0.99-1.1,1.33-0.06,1.04-2.36c-0.34,0.39-0.27,0.65-1.17,0.96
	c0.05-1.83,0.28-0.96,0.55-1.79l0.72-3.87c0.02,0.05,0.06,0.13,0.08,0.18l0.18,0.34c0.14-1.03,0.15-1.2-0.28-1.91
	c-0.55-0.93-0.37-0.65-0.55-1.82c-1.33,0.8-0.09,0.15-0.97,0.93c-0.65,0.58-1.44,0.65-2.07,1.43c-0.75-0.61-0.87-0.43-1.94,0.1
	c-0.89,0.44-1.14,0.7-2.25,0.7C331.92,269.13,329.12,267.96,327.67,267.95"/>
<path class="st13" d="M356.87,286.54l0.99,0.01c0.3,1.81,0.56,1.02,0.75,2.31c0.44,3.03,0.36,1.21,0.66,2.65
	c0.38,1.83-0.28,1.5-0.53,2.5c0,0,0.21,4.92-2.09,2.02c-1.96-2.48-0.95-3.52-0.53-6.76l-0.5-0.13c-0.62,0.92-0.96,0.06-2.71,0.42
	c0.65,0.7,0.37,0.75,0.84,1.42c0.98,1.38,2.51,1.18,0.57,4.71c0.59-0.27,0.46-0.12,0.78-0.68c0.34,1.34,1.19,2.2,2.23,2.91
	c1.25,0.86,1.46,1.6,2.63,2.47c1.74,1.3,3.7,2.48,5.8,3.25c1.12,0.41,0.5-0.41,0.93,0.64c-0.84,0.01-0.48-0.07-1.03,0.21
	c0.94-0.12,0.68-0.12,1.41-0.51c0.05-0.02,0.1-0.06,0.15-0.08c0.05-0.02,0.11-0.05,0.16-0.08c1.44-0.71,0.79-0.8,2.02-0.72
	c-0.09,0.56-0.03,0.38-0.36,0.8l0.59-0.32c-0.22-1.29-0.31-0.16-0.56-0.92c-0.23-0.72-0.25-0.54,0.46-0.84l-0.46-3.05
	c0,0-0.81-0.22-0.96-1.44c-0.64,0.52-0.43-0.65-0.42,0.84c0.01,1.09-0.1,0.16,0.51,0.75c0.59,0.58,0.81,0.55,0.41,1.67
	c-0.66,1.85-1.02,1.39-2.22,2.19c-0.39-0.1-1.08-0.4-1.63-0.63l-1.64-0.96c-0.17-1.22,0.46-1.74,0.48-3.49
	c0.02-1.89-0.36-2.39,0.69-3.54c1.42,0.16,0.39,0.35,1.7,0.73c-0.26-0.2-0.55-0.43-0.8-0.68c-0.95-0.96-0.1-0.69-1.5-1.79
	c-0.67-0.52,0.49-0.7-1.16-0.4c-0.06-1.34,0.24-1.18-0.66-1.4l0.18,1.82c-2.03,0.07-1.78-0.13-1.9-2c0.43-0.45-0.03-0.17,0.83-0.3
	l-0.94-0.97c-1.25,0.22-0.45-0.27-0.99,0.47c0.02-1.42-0.81-3.27-1.05-3.48C357.16,285.47,357.09,286.2,356.87,286.54"/>
<path class="st14" d="M336.5,296.01l0.02,0.13c0.75,0.35,1.76,1.06,2.88,1.31c1.06,0.24,0.64-0.04,1.63,0.45
	c0.85,0.41,0.68,0.31,1.79,0.32c2.14,0.02,6.62-0.21,8.42,0.08c1.23-1.44,1.3-0.12,2.26-1.61c0.47-0.73,0.98-1.74,1.16-2.68
	c-3.81,0.26-6.31,0.53-9.81,0.21c-1.89-0.17-2.74,0.1-4.54-0.5c-0.8-0.27-1.4-0.06-2.19-0.41c-0.78-0.34,0.11-0.45-2.2-0.63
	C335.83,294.89,336.35,294.48,336.5,296.01"/>
<path class="st15" d="M343.4,261.38l-0.26,1.45c-0.89,0.34-0.57,0.01-1.19,0.57l0.45,3.43c0.22,0.49,0.62,0.61,0.81,1.01
	c0.22,0.46,0.17,1.35,0.22,1.97l2.43,0.09c0.5-0.83,0.08-0.76,1.08-1.42c0.96-0.64,1.01-1.04,2.13-2.11
	c1.08-1.03,0.68-0.71,0.9-2.48c0.12-0.95,0.73-1.13,1.15-1.89c-0.68-1.03-0.41,0.19-2.1-2.57c-0.03-0.05-0.08-0.13-0.12-0.2
	c-0.83,0.32-2.15,0.27-3.14,0.77C344.92,260.42,344.47,260.9,343.4,261.38"/>
<path class="st14" d="M355.42,280.65c-0.13-1.71,0.1-1.39-0.49-2.76c-0.63-1.44-0.26-1.56,0.71-2.12l-0.06-0.74
	c-0.49,0.78,0.1,0.19-0.62,0.57c-1.03-0.58,0.11-0.04-0.52-0.48c-1.18-0.83-0.87,0.25-1.35,1.07c-0.67-0.23-0.58-0.25-0.67-1.18
	c-0.04,0.04-0.1,0.1-0.13,0.12c-0.79,0.54-1.09,0.37-2.46,0.37l-7.19-0.73c-0.47-0.09-0.33-0.07-0.52-0.19l-0.27-0.51
	c-0.02-0.07-0.03-0.13-0.05-0.2c-0.17-0.79,0.13-1-0.3-2.03c-0.6,2.92,0.43,2.09-0.57,4.57c-0.54,1.34-0.21,3.48-0.19,5.02
	c0.03-0.06,0.06-0.14,0.07-0.18c0.01-0.05,0.05-0.13,0.06-0.19c0.01-0.06,0.04-0.13,0.05-0.2l0.14-1.3c0.31-1.52,4.26-0.1,7.37-0.05
	c1.27,0.02,3.07-0.2,4.04,0.15C355,280.57,354.46,279.53,355.42,280.65"/>
<path class="st16" d="M338.73,292.99c0.47,0.13,0.98,0.07,1.53,0.17c1.16,0.2,0.71,0.35,1.53,0.54l11.79,0.05
	c0.05-0.06,0.24-0.31,0.27-0.36l0.23-0.38c0.03-0.05,0.07-0.13,0.1-0.19c-0.4-0.9-0.38-0.66-0.97-1.29
	c-0.85-0.91-0.27-0.58-0.82-1.44c-1.98-0.39-3.95,0.12-6.2-0.39c-1.99-0.45-4.68,0-6.29-0.52l-0.1,3.85L338.73,292.99z"/>
<path class="st17" d="M341.24,255.82c-0.64-0.29-0.36-0.19-0.68-0.41l-0.54-0.45c-0.03,0.06-0.04,0.14-0.05,0.19
	c-0.01,0.04-0.04,0.13-0.06,0.19l-0.22,0.51c-0.27,0.38-0.09,0.17-0.54,0.44c-0.53,0.31-0.84,0.5-1.33,0.81l0.33,0.64
	c0.08,0.18,0.11,0.11,0.1,0.33l-1.65,0.29c0.14,1.29,0.38-0.22,0.32,1.32l0.06,0.62l-1.5,0.22c-0.05,0.02-0.13,0.05-0.18,0.08
	c0.56,1.07,0.87,0.93,1.13,1.55c-0.62,0.33-0.88,0.25-1.78,0.31l0.78,1.56c0.03,0.06,0.15,0.24,0.18,0.3
	c0.33,0.6,0.23-0.41,0.31,0.71l-1.12,0.58c0.81,0.34,0.68-0.02,0.7,0.64l-4.48,0.35c1.13-0.02,2.34-0.16,3.44-0.15
	c2.14,0.01,1.15,0.7,2.52,0.65c0.15-0.7,0.21-0.86,0.5-1.43c0.4-0.8,0.05-0.16,0.34-0.54c1.04-1.34,1.05-1.73,0.01-3.14
	c0.5-1.14,0.79,0.63,0.74-2.18c1.21,0.28,0.47,0.48,1.53,0.47l1.06,0.03c2.35-3.77,0.52-1.22,2.63-2.24
	c-0.48-1.2-0.28-0.01-1.13-0.97c2.19-0.3,3.02,0.3,3.89,0.15c1.18-0.2,0.47-1.21,1.05-2.73l-0.36-0.14
	c-0.28-0.14-0.13-0.01-0.48-0.24c-0.21-0.14-0.34-0.32-0.48-0.48c-0.14,0.88-0.02,1.74-1.32,1.25l-0.36-0.24
	c-0.77-0.67,0.01-0.85-0.57-0.84c0,0.9,0.02,1.04-0.47,1.63c-0.72-0.45-0.78-0.62-1.17-1.39c-0.14-0.69-0.01-0.44-0.99-0.48
	c0.14,1.19,0.8,1.37,0.31,2.56C341.21,256.01,341.35,256.2,341.24,255.82"/>
<path class="st18" d="M356.72,254.54c-0.33,0.46-1.34,0.96-0.36,3.07c0.85,0.02,1.01-0.14,1.46-0.49l0.65-0.73
	c1.15-1.13,2.35-1.19,2.4-4.67c0.03-2,0.85-1.51,0.62-3.48c-0.26-2.2-2.21-2.58-0.38-4.61c0.71-0.78,0.9-0.36,1.69-0.85
	c0.24-2.33,0.25-3.36-0.9-3.03c-0.02,0.01-0.75,0.42-0.9,0.5c-0.61,0.34-0.31-0.1-0.99,0.85c-1.49,2.09-0.21,3.18-0.99,5.08
	c-0.75,1.83,0.04,1.02-0.81,3.17l-0.32,0.85C357.1,251.91,356.33,252.13,356.72,254.54"/>
<path class="st16" d="M338.72,300.76c0.2-0.78,0.61-0.37,0.98-0.2c4.07,1.9,0.2,0.33,4.26,1.35c1.3,0.33,3-0.04,4.88-0.31
	c0.83-0.12,0.78-0.34,1.45-0.61l0.39,0.44c0.6-0.5,0.82-0.95,1.31-1.78c0.21-0.36,0.34-0.53,0.53-0.87c0.28-0.5,0.36-0.71,0.64-1.02
	c-1.31,0.24-0.68,0.54-1.94,0.55c-1.8-0.3-6.28-0.06-8.42-0.08c-1.11-0.01-0.94,0.09-1.79-0.32c-0.99-0.48-0.57-0.21-1.63-0.45
	c-1.12-0.25-2.13-0.97-2.88-1.31c0.23,0.9,0.21,0.53,0.5,1.38c0.26,0.76,0.08,0.45,0.49,1.08L338.72,300.76z"/>
<path class="st17" d="M352.89,261.5c0.96,0.19,0.48,0.31,0.9,1.2c-0.05,0.03-0.14-0.01-0.16,0.06c-0.16,0.41,0.16-0.08-0.5,0.18
	c-0.05,0.02-0.12,0.05-0.17,0.07l-0.34,0.16c0.44,1.33,0.92,0.76,2.11,0.47c0.18,0.83-0.04,0.12,0.49,0.88
	c0.03,0.05,0.08,0.1,0.11,0.15l2.98,5.04c-0.09-0.55-0.2-0.84-0.11-1.38c0.14-0.8,0.26-0.47,0.46-0.96c-0.5-0.49-0.22-0.06-0.4-0.8
	c-0.45-0.05-0.97,0.16-1.49-1.3c1.05-1.68,1.09-0.21,2.28-1.53c1.2-1.33,0.96-0.39,2.11-1.46l-1.66,0.52
	c-0.37-1.32-0.87-0.96-2.01-1.44c0.04-0.51-0.05-0.22,0.14-0.63c0.23-0.51,0.68-0.62,0.9-0.83l-0.93-0.7
	c0.47-0.99,0.52-0.91,0.24-2.08c-0.46,0.34-0.62,0.5-1.46,0.49l-0.76-0.27l0.14-1.32l-1.6-0.15l-0.25-1.36
	c-0.6-0.65-0.27-0.17-0.43,0.05c-0.18,0.48-0.31,0.78-1.16,1.11c-0.89,0.35,0.87,0.01-0.52,0.12l-0.09-1.96
	c-0.79,0.74-0.83,0.92-1.62,1.25c-0.19,0.08-0.34,0.1-0.51,0.15l-0.12,1.1c0.98,0.04,1.17,0.27,1.97,0.18
	c0.96-0.1,0.78-0.54,1.95,0.06c1.37,0.7,1.34,1.67,0.86,3.1c-1.02,0.08-1.2-0.17-2.02,0.37C352.25,261.5,352.2,260.23,352.89,261.5"
	/>
<path class="st19" d="M310.14,309.15h8.06c-0.34-0.95-0.19-0.31-0.44-0.86c-0.96-2.08-0.95-1.23-1.4-2.09
	c-0.54-1.03,0.14-0.51-0.86-1.49c-0.3-0.29-1.04-1.01-1.13-1.17c-0.56-0.94,0.15-0.53-0.82-1.54c-0.27-0.28-0.97-0.84-1.17-1.13
	c-0.56-0.81,0.05-0.54-0.81-1.55c-0.4-0.47-0.84-0.95-1.42-1.13V309.15z"/>
<path class="st14" d="M323.83,262.87c0.6,1.14,0.58,2.1,1.43,3.14c0.71,0.87,1.1,1.89,2.4,1.94c1.45,0.01,4.25,1.18,4.89,1.18
	c1.11-0.01,1.37-0.26,2.25-0.7c1.08-0.53,1.19-0.71,1.94-0.1c0.63-0.77,1.42-0.85,2.07-1.43c0.87-0.77-0.36-0.13,0.97-0.93
	c0.18,1.17,0,0.89,0.55,1.82c0.42,0.72,0.42,0.88,0.28,1.91c-0.14,0.88-0.07,0.2,0.1,0.47c0.28,0.45,0.23,0.05,0.24,0.04
	c0.39-1.72,0.31-1.64-0.18-3.18c-0.43-1.36,0.42-6.25-2.81-1.08l-1.02,1.15c-1.37,0.05-0.38-0.63-2.52-0.65
	c-1.1-0.01-2.31,0.14-3.44,0.15c-1.09-0.13-1.63-1.37-2.15-2.31c-1.23-2.25-1.55-1.74-2.36-2.31c-0.19-1.7,0.23-2.51-1.02-3.31
	c-0.07,1.29,0.18,1.07,0.45,1.75c0.46,1.14,0.52,2.06-0.8,2.5C324.4,263.19,324.79,263.02,323.83,262.87"/>
<path class="st14" d="M339.84,288.32c1.13,0.24,1.22,0.55,2.28,0.64l9.66,0.12c-0.24-1.2-0.37-0.32-0.5-1.64
	c-0.19-1.83,0.78-2.73-4.96-2.83c-1.53-0.03-4.49-0.2-5.86,0.01C340.44,286.29,339.82,286.04,339.84,288.32"/>
<path class="st12" d="M314.26,283.33l1.16-0.24c-0.67,1-0.73,0.39-0.71,1.58c0.05-0.04,0.12-0.17,0.15-0.13
	c0.11,0.19,0.19-0.71,1.33-0.67c0.95,0.03,0.49,0.43,1.89,0.38c1.21-0.04,2.18-0.72,3.13-1.08c0.18-0.25,0.12-0.26,0.23-0.48
	c0.66-0.86,0.56-0.3,1.09-1.1c1.17,0.17,3.5,0.24,4.31-0.45c-1.33,0.35-2.85,0.23-4.23,0.06c-0.07-1.06-0.26-1.65-0.26-3.09
	c1.17-0.59,1.67-0.75,3-0.48c1.45,0.3,3.78,0.76,3.59-0.68c-1.49,0.19-0.95,0.37-2.49,0.05c-3.49-0.72-3.6,0.01-4.69,0.37
	c-1.74,0.58-3.26,0.75-4.88,1.84C314.75,280.64,315.72,281.2,314.26,283.33"/>
<path class="st20" d="M342.36,254.07c0.39,0.77,0.45,0.94,1.17,1.39c0.49-0.59,0.47-0.73,0.47-1.63c0.58-0.01-0.2,0.17,0.57,0.84
	l0.36,0.24c1.31,0.49,1.18-0.38,1.32-1.25c0.14,0.16,0.28,0.34,0.48,0.48c0.35,0.23,0.19,0.11,0.48,0.24l0.36,0.14
	c-0.58,1.52,0.12,2.53-1.05,2.73c-0.86,0.15-1.7-0.46-3.89-0.15c0.86,0.97,0.66-0.23,1.13,0.97c-2.11,1.01-0.27-1.54-2.63,2.24
	l-1.06-0.03l0.36,0.77c2.73,0.03,1.46,0.08,2.39,0.39c0.44-0.73,1.99-1.42,2.92-1.85l0.76-0.4c-0.06-0.05-0.17-0.19-0.2-0.13
	l-0.48-0.33c-0.25-0.24-0.18,0.39-0.21-0.5l2.11,0.02c0.18-0.3,0.15-0.26,0.31-0.66c0.05-0.14,0.08-0.36,0.16-0.56
	c0.17,0.27,0.9,1.67,1.63,1.83c1.55-0.06,3.46-1.51,4.29,0.58c-0.96-0.03-1.12-0.16-2.03,0.34c-0.11,0.51-0.22,0.4-0.03,0.92
	c0.24,0.66,0.6,0.64,0.84,0.79c-0.69-1.27-0.63-0.01-0.68-1.47c0.82-0.54,1-0.29,2.02-0.37c0.48-1.44,0.51-2.4-0.86-3.1
	c-1.17-0.6-0.99-0.16-1.95-0.06c-0.8,0.08-0.99-0.14-1.97-0.18l0.12-1.1c0.18-0.05,0.33-0.07,0.51-0.15
	c0.79-0.33,0.83-0.51,1.62-1.25l0.09,1.96c1.4-0.1-0.37,0.23,0.52-0.12c0.85-0.33,0.98-0.63,1.16-1.11l-0.84,0.13l-0.2-0.7
	c-0.05-0.28,0.15,0.05-0.04-0.48c-0.95-0.13-0.89-0.28-1.52,0.2c-0.85,0.64,0.09,0.35-1.04,0.96c-0.67-0.3-0.45-0.46-0.93-0.97
	c-0.56,0.98,0.16,0.58-0.79,1.04l-0.38-1.06c-1.1,0.23-0.76,0.21-1.55-0.45l-0.55,1.43c-0.73-0.24-0.8-0.64-2.21-1.73l-0.07,1.21
	L342.36,254.07z"/>
<path class="st16" d="M341.43,283.94c1.86,0.37,7.18,0.46,9.16,0.26c-0.06-1.32,0.15-3.32-0.24-4.3l-8.99-0.36
	C341.3,280.95,341.04,282.6,341.43,283.94"/>
<path class="st14" d="M338.72,300.76c0.69,0.77,1.25,1.62,1.99,2.33c0.57,0.55,1.76,1.86,2.42,2.19c0,0.61-0.05,1.66,0.03,2.23
	c0.19,1.25,0.37,0.35,0.73,1.65h0.68c0.18-1.36,0.39-0.83,0.64-1.54c0.3-0.85-0.07-0.95,0.35-1.79c0.48-0.88,0.59-0.46,1.42-0.93
	c0.4-0.23,0.88-0.69,1.28-1.04c0.91-0.78,1.89-1.61,2.42-2.43l-0.39-0.44c-0.67,0.27-0.62,0.49-1.45,0.61
	c-1.88,0.28-3.58,0.64-4.88,0.31c-4.06-1.02-0.19,0.55-4.26-1.35C339.33,300.39,338.92,299.98,338.72,300.76"/>
<path class="st21" d="M357.05,276.89c1.04,0.54,0.08-0.15,0.57,0.89c0.17,0.36-0.12,0.15,0.38,0.59c0.61,0.42,0.23,0.05,0.53,0.77
	c0.1,0.24,0.02,0.21,0.19,0.57c0.28,0.58-0.07,0.16,0.37,0.57l-0.1-1.87c1.59,1.35,2.31,3.5,2.47,5.8c-2.3-0.05-1.69-0.54-1.85-2.16
	l-0.33-0.96c-0.63,4.09,0.9,3.12,2.45,3.61c1.3,0.41,3.16,1.9,3.99,2.94c0.6,0.75,0.24-0.29,0.49,0.91c0.99-0.21,0.87,0.02,0.94-0.5
	c0.13,0.34,0.27,0.81,0.39,1.02c0.73,1.2,0.14,0.4,0.88,0.76c-0.29-1.22-1.81-4.02-2.57-5.15l-3.41-7.08
	c-0.39-1.07-0.03-1.11-1.02-1.73l2.01,5.16c0.39,0.88,0.43,0.17,0.48,1.54l-0.34-0.04c0.22,0.72,0.38,0.72,0.42,1.59
	c-0.74-0.21-0.1-0.11-0.91-0.42c-0.32-0.12-0.52-0.13-0.77-0.25l-0.27-2.23c0.63-0.03,0.49-0.01,0.98,0.2
	c-0.46-1.06-0.17-0.28-1.01-1c0.54-1.11-0.01-1.54-0.52-2.52c-0.59-1.13-0.6-1.55-1.43-2.09c0.28,1.29,1.26,2.32,1.68,3.65
	c-1.15-0.15-0.69-0.62-2.63-2.25c-0.4-0.34-1.1-0.85-1.3-1.23c-0.32-0.62-0.15-1.35-0.53-1.98c0.22,1.96,0.17,1.6-0.6,2.46
	C357.09,277.03,356.15,276.87,357.05,276.89"/>
<path class="st19" d="M318.9,309.15h9.46c-0.49-1.48-1.26-0.89-2.3-1.92c-0.99-0.98-2.76-1.61-4.08-2.26l-0.9-0.48
	c-0.25-0.12-0.27-0.11-0.49-0.22l-0.73-0.43c-0.05-0.03-0.11-0.05-0.16-0.08c-1.54-0.8-0.79-0.99-1.96-0.58l-0.08,0.76
	c0.23,1.03,0.56-0.03,0.55,2.16C318.2,308.86,318.89,307.01,318.9,309.15"/>
<path class="st4" d="M320.78,297.17c0.06,1.31,0.34,3.64,2.2,3.65l2.74-1.05c0.85-0.7,0.44-6.68,0.38-6.85
	c-0.36-0.99-0.74-0.15-0.54-3.42c-0.71,0.32-0.7,0.54-1.2,1.89l-1.3,3.1C322.62,296.03,322.4,296.46,320.78,297.17"/>
<path class="st19" d="M365.68,304.5c-0.47,0.75-3.07,1.73-3.99,2.23l-1.57,0.8c-0.76,0.53-1.09,1.02-1.31,1.62h9.46
	c0-0.51-0.07-1.08,0.09-1.55c0.28-0.86,0.23-0.11,0.5-0.88c0.25-0.72-0.01-1.87,0.21-2.81c0.33-0.41,0.27-0.24,0.36-0.8
	c-1.22-0.08-0.57,0-2.02,0.72c-0.05,0.02-0.11,0.05-0.16,0.08c-0.05,0.02-0.11,0.06-0.15,0.08
	C366.36,304.38,366.62,304.38,365.68,304.5"/>
<path class="st4" d="M368.12,297.34l-0.22-1.59c-0.01-0.1-0.06-0.13-0.1-0.18c-0.81,0.53-0.35,1.48-0.63,0.85
	c-0.02-0.04-0.05,0.12-0.09,0.17c-0.08-1.31-0.34-0.99-1.08-1.67c-1.31-0.39-0.28-0.58-1.7-0.73c-1.05,1.15-0.67,1.65-0.69,3.54
	c-0.02,1.75-0.65,2.28-0.48,3.49l1.64,0.96c0.55,0.23,1.24,0.53,1.63,0.63c1.21-0.8,1.57-0.34,2.22-2.19
	c0.4-1.12,0.18-1.1-0.41-1.67c-0.61-0.6-0.49,0.34-0.51-0.75C367.69,296.7,367.48,297.86,368.12,297.34"/>
<path class="st12" d="M322.38,261.6c-0.14-1.27,0.1-0.3-0.64-1.23c1.18-1.17,1.84-0.81,1.34-3.27c1.36,0.24,0.76,0.49,2.06,0.81
	c-0.34-0.9-0.3-0.77-1.04-1.22c-2.2-1.34-1.38-0.27-3.45-0.66c-2.51-0.47-2.96-2.28-7.02-0.13c-2.01,1.06-1.26,1.26,0.11,2.28
	c0.57,0.43,0.63,0.63,1.42,0.65c0.31-0.52,0.45-1.13,0.81-1.72l3.6-0.16c-0.18,1.69-0.2,1.95,0.63,2.9l2,1.63
	C322.25,261.52,322.32,261.56,322.38,261.6"/>
<path class="st16" d="M342.11,274.6c3.06-0.53,5.96,0.83,8.3,0.49c0.15-0.57,0.07-0.96,0.2-1.6c0.26-1.24,0.44-0.23,0.37-1.76
	c-2.8-2.08-1.96,0.5-3.71,0.42c-1.49-0.07,1.68-0.71-5.2-0.7L342.11,274.6z"/>
<path class="st4" d="M333.93,284.38c-0.13,0.73-0.18,0.43-0.51,1.12c-0.02,0.05-0.05,0.11-0.07,0.16l-2.15,5.29
	c-0.16,1.1,0.11,4.2,0.66,5.13c1.27-0.11,1.98-1.22,2.48-2.14c1.44-2.66,0.39-4.03,0.04-5.91
	C334.16,286.87,334.53,285.37,333.93,284.38"/>
<path class="st4" d="M356.12,289.28c-0.42,3.24-1.43,4.28,0.53,6.76c2.29,2.89,2.09-2.02,2.09-2.02c0.25-1,0.91-0.67,0.53-2.5
	c-0.3-1.44-0.22,0.37-0.66-2.65c-0.19-1.28-0.45-0.49-0.75-2.31l-0.99-0.01C356.82,288.13,356.95,288.51,356.12,289.28"/>
<path class="st11" d="M330.29,274.82c-0.66,0.79-1.33,0.76-1.36,2.13c0.19,1.43-2.14,0.98-3.59,0.68c-1.33-0.28-1.83-0.12-3,0.48
	c0,1.44,0.19,2.03,0.26,3.09c1.38,0.17,2.9,0.3,4.23-0.06c0.88-0.38,1.08-0.7,1.51-1.44c0.64-1.11,3.36-4.56,3.54-5.53
	C330.96,274.46,331.25,274.58,330.29,274.82"/>
<path class="st10" d="M353.9,254.51l0.25,1.36l1.6,0.15l-0.14,1.32l0.76,0.27c-0.98-2.1,0.03-2.61,0.36-3.07
	c-1.67,0.29-0.84-0.01-1.58,0.52c-0.04,0.03-0.13,0.19-0.16,0.14c-0.03-0.05-0.1,0.11-0.16,0.15c0.11-2,0.86-0.83,0.67-4.1
	c-0.03-0.44-0.03-0.63-0.18-1.02l-0.45-0.71c-1.24-1.96-0.51-1.03-2.1-2.34c-0.45-0.37-0.56-0.61-1.31-0.72
	c-0.68-0.1-1.42,0.06-2.07-0.11c-1.24-0.34,0.04-0.41-1.4-0.71l0.13-1.13l-0.3,0.27c-0.03,0.04-0.1,0.1-0.15,0.15l-0.41,0.52
	c0.36,0.76,0.04,0.21,0.6,0.63l1.34,0.74c1.4,0.8,0.97,1.85,2.07,4.42c0.79,0.01,1.04-0.13,1.34-0.65c0.29-0.52,0.09-0.32,0.29-0.86
	c0.03-0.07,0.1-0.29,0.13-0.36c0.18-0.39,0.09-0.23,0.3-0.48c1.39,0.55,1.76,2,1.69,3.62c-0.64-0.39-0.69-1.73-0.91-0.28
	c-0.22,1.4,0.36,0.99,0.38,2.33C354.04,254.81,354.53,254.81,353.9,254.51"/>
<path class="st4" d="M358.93,297.48c0.43,1.19,1.66,2.41,3.01,3.02c0.62-1.29,0.81-1.13,0.8-3.02c0-1.15,0.25-2.94-0.43-3.63
	c-0.74-0.75-2.33-0.56-2.65,0.41c-0.17,0.51-0.07,1.1-0.2,1.69C359.29,296.76,359.09,296.66,358.93,297.48"/>
<path class="st22" d="M333.8,283.3c0.38-0.2,0.55,0.35,0.69-1.68l1.69-4.66c0.46-0.65,0.68-0.79,0.71-1.41
	c-0.19-0.03-0.78-0.05-0.84-0.06c-1.08-0.28-0.35,0.05-0.9-0.4c0.85-0.64,1.64-0.31,3.17-0.36l0.14-2.21l-0.1-0.69l-0.87,0.02
	c-0.91,1.08-0.72,0.88-1.16,2.34c-0.92-0.28-0.21,0.12-0.92-0.64c-0.69,1.12-1.88,1.74-2.28,3.08c0.99-0.08,0.1-0.42,1.94-0.57
	c-0.28,1.62-0.02,0.24-0.38,1.14l-0.91,2.27c-0.27,0.84-0.43,0.82-0.59,1.46c-0.16,0.62-0.13,1.44-0.15,2.06L333.8,283.3z"/>
<path class="st18" d="M355.42,280.65c0.68,0.9,0.18,0.33,0.52,1.17c0.16,0.39-0.08,0.6,0.59,0.63l0.47,0.72
	c0.48,0.84-0.29-0.16,0.3,0.57c2.83,0.16,0.73-2.39,0.7-5.35c-0.49-0.45-0.2-0.23-0.38-0.59c-0.49-1.04,0.47-0.35-0.57-0.89
	c-0.76-0.5-0.06-0.18-0.56-0.98c0-0.01-0.45-0.52-0.46-0.54l-0.45-0.35l0.06,0.74c-0.98,0.56-1.34,0.68-0.71,2.12
	C355.52,279.26,355.29,278.94,355.42,280.65"/>
<path class="st4" d="M327.11,294.91l0,3.91c1.7-0.04,2.63-0.76,3.36-1.8l-0.28-4.82c-1.41-0.13-1.91-0.42-2.78,1.3
	C327.06,294.2,327.11,293.88,327.11,294.91"/>
<path class="st19" d="M368.93,309.15h4.71v-6.83c-1.57,0.52-0.54,0.83-2.05,2.45c-0.76,0.81-0.21,0.06-0.58,0.88
	C369.94,308.09,368.95,306.85,368.93,309.15"/>
<path class="st11" d="M322.38,261.6c0.1,0.2-0.07-0.06,0.21,0.37c0.01,0.02,0.26,0.37,0.27,0.39c0.47,0.54,0.37,0.49,0.97,0.51
	c0.96,0.15,0.57,0.32,1.29,0.08c1.31-0.44,1.26-1.36,0.8-2.5c-0.27-0.68-0.52-0.46-0.45-1.75c0.17-0.77,0.13-0.64-0.33-0.78
	c-1.29-0.32-0.7-0.58-2.06-0.81c0.5,2.46-0.16,2.1-1.34,3.27C322.48,261.3,322.24,260.33,322.38,261.6"/>
<path class="st23" d="M338.52,277.89c-1.27,2.55-1.27,3.19-1.24,5.75l2.04,0.01c0.79-0.28,1.05-6.58,0.95-7.45l-1.05,0.04
	C338.95,277.25,338.78,276.62,338.52,277.89"/>
<path class="st4" d="M328.54,291.22l1.44-0.08c0.59-0.75,1.06-2.27,1.44-3.36l0.64-1.8c0.49-1.12,0.7-1.1,0.81-2.07
	c-1.87,0.27-3.16,1.63-3.71,3.34C328.65,288.81,328.26,288.49,328.54,291.22"/>
<path class="st24" d="M357.29,274.01c0.38,0.64,0.21,1.36,0.53,1.98c0.2,0.38,0.9,0.89,1.3,1.23c1.94,1.64,1.47,2.11,2.63,2.25
	c-0.43-1.33-1.4-2.36-1.68-3.65c-0.05-0.17-3.33-6.71-3.81-7.11c-0.03,0.53-0.16,1.13-0.06,1.64c0.23,1.12,0.11-0.22,0.53,1.1
	c0.19,0.61,0.05,0.87,0.16,1.48C357.1,274.2,357.03,272.77,357.29,274.01"/>
<path class="st25" d="M351.47,284.21l4.24,0.07c-0.39-0.81-0.33-0.85-0.48-1.96c-0.13-0.9-0.33-1.02-0.74-1.74l-2.96-0.25
	L351.47,284.21z"/>
<path class="st11" d="M310.14,285.69v3.02c1.55-0.08,2.12-0.53,2.93-1.36l1.64-2.68c-0.03-1.19,0.03-0.58,0.71-1.58l-1.16,0.24
	C312.76,283.96,312.7,285.66,310.14,285.69"/>
<path class="st24" d="M331.06,279.98c-0.21,0.49-0.5,1.21-0.78,1.74c-0.29,0.54-0.58,0.37-0.35,2.11l1.2-0.08
	c0.53-0.15,0.26-0.09,0.58-0.42c0.01-0.01,0.46-0.59,0.49-0.68c0.31-0.74,0.03-1.11,0.22-1.91c0.22-0.97,0.29-0.16,0.58-1.49
	l0.49-1.6C332.29,278.02,331.58,278.94,331.06,279.98"/>
<path class="st18" d="M360.06,289.22l0.94,0.97l0.24-0.06c0.87,0.15,0.12-0.01,0.69,0.13c0.32-2.44-0.66-3.84-2.48-5.23
	c-0.05-0.04-0.1-0.08-0.15-0.11l-0.55-0.34c0.08,1.27,0.02,1.6,0.46,2.63C359.69,288.29,359.47,288.62,360.06,289.22"/>
<path class="st11" d="M330.45,255.69c0.03,0.49-0.02,0.29,0.29,0.64c0.64,0.73,0.11,0.25,0.64,0.43c1.14-0.1,0.69,0.05,1.62,0.33
	c0.24-1,0.82-1.01,0.25-2.38c-0.24-0.58-0.23,0.08-0.69-2.05c-1.11,0.63-0.27,1-2.46,0.9C330.15,254.51,330.39,254.86,330.45,255.69
	"/>
<path class="st10" d="M334.33,283.79l0.01,0.64c1.04,2.14-1.48,3.22,2.77,3.36c-0.02-1.73-0.45-1.63-0.4-3.61
	c-0.06-0.04-0.14-0.09-0.19-0.12c-1.03-0.68-0.71-0.65-1.4-0.77c-0.03,0.02-0.38,0.26-0.42,0.29L334.33,283.79z"/>
<path class="st11" d="M369.79,302.17c0.03,0.04,0.06,0.1,0.08,0.12l0.73,0.75c0.62-0.29,1.74-2.52,1.74-2.52
	c-0.61-1.01-0.62-0.62-1.06-1.16c-0.53-0.65-0.11-0.85-0.88-1.26l-0.69-0.43C369.68,299.19,369.8,300.8,369.79,302.17"/>
<path class="st25" d="M338.73,292.99l1.07,0.02l0.1-3.85c-0.39-0.52,0.07-0.14-0.64-0.39l-1.27,1.77c-0.53,0.69-1.14,1.03-1.28,1.8
	C338.17,292.36,337.77,292.51,338.73,292.99"/>
<path class="st4" d="M359.08,280.29l0.18,0.82l0.33,0.96c0.17,1.61-0.45,2.1,1.85,2.16c-0.16-2.3-0.88-4.45-2.47-5.8L359.08,280.29z
	"/>
<path class="st21" d="M337.48,271.83l0.87-0.02l0.1,0.69c1.15-0.55,0.49-0.42,0.58-3.75l-0.17-1.1l-0.43,1.36
	c-0.81-0.28-0.42-0.24-0.97-0.84c-0.44,0.44-0.82,0.81-1.19,1.29c-0.15,0.2-0.37,0.51-0.59,0.81l-0.52,0.84
	c0.87,0.35,1.67-0.38,1.98-0.99l0.32-0.79l0.95,1.78L337.48,271.83z"/>
<path class="st23" d="M356.47,275.19l0.2-1.28c-0.56-0.58-0.66-1.17-0.82-2.07c-0.64,0.21-0.92-0.01-1.11,0.86
	c-0.15,0.7,0.14,0.95,0.51,1.37L356.47,275.19z"/>
<path class="st4" d="M361.89,290.66l-0.55-0.03l-0.09-0.51l-0.24,0.06c-0.86,0.13-0.4-0.16-0.83,0.3c0.12,1.87-0.13,2.07,1.9,2
	L361.89,290.66z"/>
<path class="st24" d="M363.57,282.54c-0.05-0.69-0.27-0.8-0.55-1.1c-0.48-0.22-0.35-0.23-0.98-0.2l0.27,2.23
	c0.25,0.12,0.45,0.13,0.77,0.25c0.81,0.31,0.17,0.21,0.91,0.42C363.95,283.26,363.79,283.26,363.57,282.54"/>
</svg>
